<svg width="27" height="19" viewBox="0 0 27 19" fill="none" xmlns="http://www.w3.org/2000/svg">
<path d="M24.0859 9.5C26.0391 7.54688 26.0391 4.38281 24.0859 2.42969C22.1328 0.476562 18.9688 0.476562 17.0156 2.42969L16.1172 3.32812C15.8828 3.5625 15.8828 3.95312 16.1172 4.22656C16.3906 4.46094 16.7812 4.46094 17.0156 4.22656L17.9141 3.32812C19.3594 1.88281 21.7422 1.88281 23.1875 3.32812C24.6719 4.8125 24.6719 7.15625 23.1875 8.64062L18.3438 13.4844C16.8594 14.9688 14.5156 14.9688 13.0312 13.4844C11.6641 12.1172 11.5859 9.89062 12.875 8.40625L13.0703 8.17188C13.3047 7.89844 13.2656 7.50781 12.9922 7.27344C12.7578 7.03906 12.3281 7.07812 12.1328 7.35156L11.8984 7.58594C10.1797 9.53906 10.2969 12.5078 12.1719 14.3828C14.0859 16.3359 17.25 16.3359 19.2031 14.3828L24.0859 9.5ZM2.875 9.5C0.921875 11.4531 0.921875 14.6172 2.875 16.5703C4.82812 18.5234 7.99219 18.5234 9.94531 16.5703L10.8438 15.7109C11.0781 15.4766 11.0781 15.0469 10.8438 14.8125C10.5703 14.5781 10.1797 14.5781 9.94531 14.8125L9.04688 15.7109C7.60156 17.1562 5.21875 17.1562 3.77344 15.7109C2.28906 14.2266 2.28906 11.8828 3.77344 10.3984L8.61719 5.55469C10.1016 4.07031 12.4453 4.07031 13.9297 5.55469C15.2969 6.92188 15.375 9.14844 14.125 10.6328L13.8906 10.8672C13.6562 11.1406 13.6953 11.5312 13.9688 11.7656C14.2422 12 14.6328 11.9609 14.8281 11.6875L15.0625 11.4531C16.7812 9.46094 16.6641 6.49219 14.8281 4.65625C12.8359 2.70312 9.71094 2.70312 7.75781 4.65625L2.875 9.5Z" fill="#C9CED6"/>
</svg>
