<svg width="20" height="14" viewBox="0 0 20 14" fill="none" xmlns="http://www.w3.org/2000/svg">
<path d="M17.9812 6.875C19.446 5.41016 19.446 3.03711 17.9812 1.57227C16.5164 0.107422 14.1433 0.107422 12.6785 1.57227L12.0046 2.24609C11.8289 2.42188 11.8289 2.71484 12.0046 2.91992C12.2097 3.0957 12.5027 3.0957 12.6785 2.91992L13.3523 2.24609C14.4363 1.16211 16.2234 1.16211 17.3074 2.24609C18.4207 3.35938 18.4207 5.11719 17.3074 6.23047L13.6746 9.86328C12.5613 10.9766 10.8035 10.9766 9.69019 9.86328C8.66479 8.83789 8.6062 7.16797 9.573 6.05469L9.71948 5.87891C9.89526 5.67383 9.86597 5.38086 9.66089 5.20508C9.48511 5.0293 9.16284 5.05859 9.01636 5.26367L8.84058 5.43945C7.55151 6.9043 7.6394 9.13086 9.04565 10.5371C10.4812 12.002 12.8542 12.002 14.3191 10.5371L17.9812 6.875ZM2.073 6.875C0.608154 8.33984 0.608154 10.7129 2.073 12.1777C3.53784 13.6426 5.91089 13.6426 7.37573 12.1777L8.04956 11.5332C8.22534 11.3574 8.22534 11.0352 8.04956 10.8594C7.84448 10.6836 7.55151 10.6836 7.37573 10.8594L6.7019 11.5332C5.61792 12.6172 3.83081 12.6172 2.74683 11.5332C1.63354 10.4199 1.63354 8.66211 2.74683 7.54883L6.37964 3.91602C7.49292 2.80273 9.25073 2.80273 10.364 3.91602C11.3894 4.94141 11.448 6.61133 10.5105 7.72461L10.3347 7.90039C10.1589 8.10547 10.1882 8.39844 10.3933 8.57422C10.5984 8.75 10.8914 8.7207 11.0378 8.51562L11.2136 8.33984C12.5027 6.8457 12.4148 4.61914 11.0378 3.24219C9.5437 1.77734 7.19995 1.77734 5.73511 3.24219L2.073 6.875Z" fill="#C9CED6"/>
</svg>
